REM DIRINDEX 1\5,1\2\6,1\2\7,1\3\8,1\3\9,1\4\10,1\4\11,1\4\12
REM DIRNAME folder01,folder02,folder03,folder04,folder05,folder06,folder07,folder08,folder09,folder10,folder11,folder12
TITLE ""
FILE "EJE_DB3000_5th_3B_12.mp3" MP3
  TRACK 01 AUDIO
    TITLE "0:"
    INDEX 01 00:00:00
  TRACK 02 AUDIO
    TITLE "10:cjc026_08718"
    INDEX 01 00:00:05
  TRACK 03 AUDIO
    TITLE "0:"
    INDEX 01 00:00:70
  TRACK 04 AUDIO
    TITLE "11:cjc026_08719"
    INDEX 01 00:01:21
  TRACK 05 AUDIO
    TITLE "0:"
    INDEX 01 00:02:32
  TRACK 06 AUDIO
    TITLE "12:cjc026_08720"
    INDEX 01 00:02:59
  TRACK 07 AUDIO
    TITLE "0:"
    INDEX 01 00:03:47
  TRACK 08 AUDIO
    TITLE "10:cjc026_08721"
    INDEX 01 00:03:74
  TRACK 09 AUDIO
    TITLE "0:"
    INDEX 01 00:04:70
  TRACK 10 AUDIO
    TITLE "11:cjc026_08722"
    INDEX 01 00:05:20
  TRACK 11 AUDIO
    TITLE "0:"
    INDEX 01 00:06:26
  TRACK 12 AUDIO
    TITLE "12:cjc026_08723"
    INDEX 01 00:06:51
  TRACK 13 AUDIO
    TITLE "0:"
    INDEX 01 00:07:47
  TRACK 14 AUDIO
    TITLE "10:cjc026_08724"
    INDEX 01 00:07:72
  TRACK 15 AUDIO
    TITLE "0:"
    INDEX 01 00:09:00
  TRACK 16 AUDIO
    TITLE "11:cjc026_08725"
    INDEX 01 00:09:26
  TRACK 17 AUDIO
    TITLE "0:"
    INDEX 01 00:10:29
  TRACK 18 AUDIO
    TITLE "12:cjc026_08726"
    INDEX 01 00:10:55
  TRACK 19 AUDIO
    TITLE "0:"
    INDEX 01 00:11:58
  TRACK 20 AUDIO
    TITLE "10:cjc026_08727"
    INDEX 01 00:12:09
  TRACK 21 AUDIO
    TITLE "0:"
    INDEX 01 00:13:10
  TRACK 22 AUDIO
    TITLE "11:cjc026_08728"
    INDEX 01 00:13:37
  TRACK 23 AUDIO
    TITLE "0:"
    INDEX 01 00:14:31
  TRACK 24 AUDIO
    TITLE "12:cjc026_08729"
    INDEX 01 00:14:56
  TRACK 25 AUDIO
    TITLE "0:"
    INDEX 01 00:15:58
  TRACK 26 AUDIO
    TITLE "10:cjc026_08730"
    INDEX 01 00:16:08
  TRACK 27 AUDIO
    TITLE "0:"
    INDEX 01 00:17:04
  TRACK 28 AUDIO
    TITLE "11:cjc026_08731"
    INDEX 01 00:17:29
  TRACK 29 AUDIO
    TITLE "0:"
    INDEX 01 00:18:42
  TRACK 30 AUDIO
    TITLE "12:cjc026_08732"
    INDEX 01 00:18:68
  TRACK 31 AUDIO
    TITLE "0:"
    INDEX 01 00:19:63
  TRACK 32 AUDIO
    TITLE "10:cjc026_08733"
    INDEX 01 00:20:14
  TRACK 33 AUDIO
    TITLE "0:"
    INDEX 01 00:21:06
  TRACK 34 AUDIO
    TITLE "11:cjc026_08734"
    INDEX 01 00:21:31
  TRACK 35 AUDIO
    TITLE "0:"
    INDEX 01 00:22:38
  TRACK 36 AUDIO
    TITLE "12:cjc026_08735"
    INDEX 01 00:22:64
  TRACK 37 AUDIO
    TITLE "0:"
    INDEX 01 00:23:55
  TRACK 38 AUDIO
    TITLE "10:cjc026_08736"
    INDEX 01 00:24:06
  TRACK 39 AUDIO
    TITLE "0:"
    INDEX 01 00:24:67
  TRACK 40 AUDIO
    TITLE "11:cjc026_08737"
    INDEX 01 00:25:17
  TRACK 41 AUDIO
    TITLE "0:"
    INDEX 01 00:26:30
  TRACK 42 AUDIO
    TITLE "12:cjc026_08738"
    INDEX 01 00:26:58
  TRACK 43 AUDIO
    TITLE "0:"
    INDEX 01 00:27:43
  TRACK 44 AUDIO
    TITLE "10:cjc026_08739"
    INDEX 01 00:27:69
  TRACK 45 AUDIO
    TITLE "0:"
    INDEX 01 00:28:53
  TRACK 46 AUDIO
    TITLE "11:cjc026_08740"
    INDEX 01 00:29:03
  TRACK 47 AUDIO
    TITLE "0:"
    INDEX 01 00:30:14
  TRACK 48 AUDIO
    TITLE "12:cjc026_08741"
    INDEX 01 00:30:40
  TRACK 49 AUDIO
    TITLE "0:"
    INDEX 01 00:31:24
  TRACK 50 AUDIO
    TITLE "10:cjc026_08742"
    INDEX 01 00:31:51
  TRACK 51 AUDIO
    TITLE "0:"
    INDEX 01 00:32:39
  TRACK 52 AUDIO
    TITLE "11:cjc026_08743"
    INDEX 01 00:32:64
  TRACK 53 AUDIO
    TITLE "0:"
    INDEX 01 00:33:60
  TRACK 54 AUDIO
    TITLE "12:cjc026_08744"
    INDEX 01 00:34:10
  TRACK 55 AUDIO
    TITLE "0:"
    INDEX 01 00:35:00
  TRACK 56 AUDIO
    TITLE "10:cjc026_08745"
    INDEX 01 00:35:25
  TRACK 57 AUDIO
    TITLE "0:"
    INDEX 01 00:36:13
  TRACK 58 AUDIO
    TITLE "11:cjc026_08746"
    INDEX 01 00:36:40
  TRACK 59 AUDIO
    TITLE "0:"
    INDEX 01 00:37:46
  TRACK 60 AUDIO
    TITLE "12:cjc026_08747"
    INDEX 01 00:37:73
  TRACK 61 AUDIO
    TITLE "0:"
    INDEX 01 00:38:61
  TRACK 62 AUDIO
    TITLE "10:cjc026_08748"
    INDEX 01 00:39:13
  TRACK 63 AUDIO
    TITLE "0:"
    INDEX 01 00:40:09
  TRACK 64 AUDIO
    TITLE "11:cjc026_08749"
    INDEX 01 00:40:34
  TRACK 65 AUDIO
    TITLE "0:"
    INDEX 01 00:41:51
  TRACK 66 AUDIO
    TITLE "12:cjc026_08750"
    INDEX 01 00:42:04
  TRACK 67 AUDIO
    TITLE "0:"
    INDEX 01 00:42:72
  TRACK 68 AUDIO
    TITLE "10:cjc026_08751"
    INDEX 01 00:43:23
  TRACK 69 AUDIO
    TITLE "0:"
    INDEX 01 00:44:14
  TRACK 70 AUDIO
    TITLE "11:cjc026_08752"
    INDEX 01 00:44:40
  TRACK 71 AUDIO
    TITLE "0:"
    INDEX 01 00:45:71
  TRACK 72 AUDIO
    TITLE "12:cjc026_08753"
    INDEX 01 00:46:23
  TRACK 73 AUDIO
    TITLE "0:"
    INDEX 01 00:47:13
